<svg width="120" height="120" viewBox="0 0 120 120" fill="none" xmlns="http://www.w3.org/2000/svg">
  <defs>
    <linearGradient id="vibeGrad" x1="0%" y1="0%" x2="100%" y2="100%">
      <stop offset="0%" style="stop-color:#3b82f6;stop-opacity:1" />
      <stop offset="100%" style="stop-color:#06b6d4;stop-opacity:1" />
    </linearGradient>
    <linearGradient id="vibeGradLight" x1="0%" y1="0%" x2="100%" y2="100%">
      <stop offset="0%" style="stop-color:#60a5fa;stop-opacity:1" />
      <stop offset="100%" style="stop-color:#22d3ee;stop-opacity:1" />
    </linearGradient>
  </defs>
  
  <!-- Background -->
  <rect width="120" height="120" rx="24" fill="url(#vibeGrad)"/>
  
  <!-- Masonry blocks - representing the infinite block engine -->
  <!-- Left column -->
  <rect x="18" y="20" width="24" height="32" rx="5" fill="white" opacity="0.95"/>
  <rect x="18" y="58" width="24" height="20" rx="5" fill="white" opacity="0.85"/>
  <rect x="18" y="84" width="24" height="16" rx="5" fill="white" opacity="0.9"/>
  
  <!-- Middle column -->
  <rect x="48" y="28" width="24" height="22" rx="5" fill="white" opacity="0.9"/>
  <rect x="48" y="56" width="24" height="36" rx="5" fill="white" opacity="0.95"/>
  <rect x="48" y="98" width="24" height="14" rx="5" fill="white" opacity="0.8"/>
  
  <!-- Right column -->
  <rect x="78" y="22" width="24" height="38" rx="5" fill="white" opacity="0.85"/>
  <rect x="78" y="66" width="24" height="24" rx="5" fill="white" opacity="0.9"/>
  <rect x="78" y="96" width="24" height="16" rx="5" fill="white" opacity="0.85"/>
  
  <!-- Infinite loop symbol (subtle overlay) -->
  <path d="M 30 60 Q 40 50, 50 60 Q 60 70, 70 60" stroke="url(#vibeGradLight)" stroke-width="3" fill="none" opacity="0.4" stroke-linecap="round"/>
  <path d="M 30 60 Q 40 70, 50 60 Q 60 50, 70 60" stroke="url(#vibeGradLight)" stroke-width="3" fill="none" opacity="0.4" stroke-linecap="round"/>
</svg>

