<svg width="120" height="120" viewBox="0 0 120 120" fill="none" xmlns="http://www.w3.org/2000/svg">
  <defs>
    <linearGradient id="grad1" x1="0%" y1="0%" x2="100%" y2="100%">
      <stop offset="0%" style="stop-color:#3b82f6;stop-opacity:1" />
      <stop offset="100%" style="stop-color:#06b6d4;stop-opacity:1" />
    </linearGradient>
  </defs>
  
  <!-- Background circle -->
  <circle cx="60" cy="60" r="58" fill="url(#grad1)" opacity="0.1"/>
  
  <!-- Masonry blocks representing infinite layout -->
  <!-- Column 1 -->
  <rect x="20" y="15" width="22" height="28" rx="4" fill="url(#grad1)" opacity="0.9"/>
  <rect x="20" y="48" width="22" height="18" rx="4" fill="url(#grad1)" opacity="0.7"/>
  <rect x="20" y="71" width="22" height="34" rx="4" fill="url(#grad1)" opacity="0.8"/>
  
  <!-- Column 2 -->
  <rect x="49" y="25" width="22" height="20" rx="4" fill="url(#grad1)" opacity="0.8"/>
  <rect x="49" y="50" width="22" height="32" rx="4" fill="url(#grad1)" opacity="0.9"/>
  <rect x="49" y="87" width="22" height="18" rx="4" fill="url(#grad1)" opacity="0.6"/>
  
  <!-- Column 3 -->
  <rect x="78" y="18" width="22" height="35" rx="4" fill="url(#grad1)" opacity="0.7"/>
  <rect x="78" y="58" width="22" height="22" rx="4" fill="url(#grad1)" opacity="0.9"/>
  <rect x="78" y="85" width="22" height="20" rx="4" fill="url(#grad1)" opacity="0.8"/>
  
  <!-- Infinite symbol overlay (subtle) -->
  <path d="M 35 60 Q 45 50, 55 60 Q 65 70, 75 60" stroke="url(#grad1)" stroke-width="2.5" fill="none" opacity="0.6" stroke-linecap="round"/>
  <path d="M 35 60 Q 45 70, 55 60 Q 65 50, 75 60" stroke="url(#grad1)" stroke-width="2.5" fill="none" opacity="0.6" stroke-linecap="round"/>
</svg>

